# xmcd
#
# Track frame offsets:
#	150
#	22615
#	42645
#	58041
#	77233
#	95892
#	116179
#	135842
#	154321
#	175999
#	199133
#	219387
#	239218
#	255356
#
# Disc length: 3504 seconds
#
# Revision: 2
# Processed by: cddbd v1.4b41PL1 Copyright (c) Steve Scherf et al.
# Submitted via: EZCDDA 4.3.2
#
DISCID=c70dae0e
DTITLE=Profile - Nothin' But Drama
DYEAR=1900
DGENRE=
TTITLE0=Liar
TTITLE1=(Can We) M.A.K.E. L.U.V.
TTITLE2=Damn
TTITLE3=Can We Talk (About Us)
TTITLE4=Nasty
TTITLE5=Every Little Thing
TTITLE6=I Do
TTITLE7=Changes
TTITLE8=Can We Make Love
TTITLE9=You Bring The Freak
TTITLE10=One Night
TTITLE11=Addicted
TTITLE12=No Trickin'
TTITLE13=Thank You
EXTD=
EXTT0=
EXTT1=
EXTT2=
EXTT3=
EXTT4=
EXTT5=
EXTT6=
EXTT7=
EXTT8=
EXTT9=
EXTT10=
EXTT11=
EXTT12=
EXTT13=
PLAYORDER=
